:version 1.10
:name ASF
:units
  mass 1
  length 1
  angle deg
:documentation
  ASF file generated by Kaydara
:root
  axis xyz
  order  tx ty tz rx ry rz
  position 0 0 0
  orientation 0 0 0
:bonedata
  begin
    id 1
    name RightUpLegDummy
    direction -0.65628 -0.754516 0.00165102
    length 4.76918
    axis 0 0 0 xyz
  end
  begin
    id 2
    name RightUpLeg
    direction -0.145584 -0.923362 0.355256
    length 17.9961
    axis -24.7611 -13.1006 1.78531 xyz
    dof rx ry rz
  end
  begin
    id 3
    name RightLeg
    direction 0.263379 0.172355 -0.949171
    length 13.3386
    axis 89.6202 -21.1929 12.3855 xyz
    dof rx ry rz
  end
  begin
    id 4
    name RightFoot
    direction 0.224283 -0.968777 -0.105675
    length 5.86697
    axis 56.995 -39.6905 17.3365 xyz
    dof rx ry rz
  end
  begin
    id 5
    name RightToes
    direction -0.0806345 -0.9037 0.420506
    length 4.75197
    axis 146.825 -39.7828 17.6019 xyz
    dof rx ry rz
  end
  begin
    id 6
    name SpineDummy
    direction -3.39852e-014 1 9.33296e-014
    length 8.13779
    axis 0 0 0 xyz
  end
  begin
    id 7
    name Spine
    direction -0.156609 0.733703 0.661176
    length 7.14978
    axis 41.2365 5.68757 17.0844 xyz
    dof rx ry rz
  end
  begin
    id 8
    name Spine1
    direction 0 0 0
    length 0
    axis 42.8809 47.8308 -3.36039 xyz
    dof rx ry rz
  end
  begin
    id 9
    name HEadDummy
    direction 0.546431 0.701947 0.456819
    length 3.55512
    axis 42.8809 47.8308 -3.36039 xyz
  end
  begin
    id 10
    name HEad
    direction 0.23444 0.828559 0.508457
    length 7.35827
    axis 51.1864 49.2662 27.4903 xyz
    dof rx ry rz
  end
  begin
    id 11
    name LeftShoulder1Dummy
    direction 0.431183 0.475873 -0.766568
    length 2.49352
    axis 42.8809 47.8308 -3.36039 xyz
  end
  begin
    id 12
    name LeftShoulder1
    direction 0.268187 -0.383402 -0.883786
    length 4.48604
    axis -119.517 0.106469 35.1736 xyz
    dof rx ry rz
  end
  begin
    id 13
    name LeftArm
    direction 0.380567 -0.703221 -0.600541
    length 10.1142
    axis -5.41825 36.2925 7.8293 xyz
    dof rx ry rz
  end
  begin
    id 14
    name LeftForeArm
    direction 0.541071 -0.732356 -0.413396
    length 9.39839
    axis 4.65387 33.7604 7.81644 xyz
    dof rx ry rz
  end
  begin
    id 15
    name LeftHand
    direction 0.847511 -0.389379 -0.360707
    length 3.66142
    axis 7.65593 21.1436 -24.6758 xyz
    dof rx ry rz
  end
  begin
    id 16
    name RightShoulderDummy
    direction -0.692546 0.541855 0.476208
    length 2.49352
    axis 42.8809 47.8308 -3.36039 xyz
  end
  begin
    id 17
    name RightShoulder
    direction -0.870808 -0.316653 0.376065
    length 4.48602
    axis 141.571 51.133 -100.254 xyz
    dof rx ry rz
  end
  begin
    id 18
    name RightArm
    direction 0.366897 -0.87275 0.322015
    length 10.1142
    axis 92.3258 71.2036 138.917 xyz
    dof rx ry rz
  end
  begin
    id 19
    name RightForeArm
    direction 0.702487 -0.694568 0.155197
    length 9.39835
    axis 153.863 41.5092 -176.604 xyz
    dof rx ry rz
  end
  begin
    id 20
    name RightHand
    direction 0.79502 -0.601276 0.0800636
    length 3.66142
    axis 154.247 4.59222 142.9 xyz
    dof rx ry rz
  end
  begin
    id 21
    name LeftUpLegDummy
    direction 0.65628 -0.754516 0.00165102
    length 4.76919
    axis 0 0 0 xyz
  end
  begin
    id 22
    name LeftUpLeg
    direction -0.1277 -0.689368 0.713067
    length 17.9961
    axis -48.3385 -17.8675 0.791927 xyz
    dof rx ry rz
  end
  begin
    id 23
    name LeftLeg
    direction 0.109849 -0.991246 -0.0732378
    length 13.3386
    axis -2.05791 -7.30784 1.72042 xyz
    dof rx ry rz
  end
  begin
    id 24
    name LeftFoot
    direction 0.0448355 -0.272614 0.961078
    length 5.86697
    axis -18.7733 -7.89606 10.2113 xyz
    dof rx ry rz
  end
  begin
    id 25
    name LeftToes
    direction -0.18506 0.293668 0.937823
    length 4.75197
    axis 71.2267 -7.89606 10.2113 xyz
    dof rx ry rz
  end
:hierarchy
  begin
    root RightUpLegDummy SpineDummy LeftUpLegDummy
    RightUpLegDummy RightUpLeg
    RightUpLeg RightLeg
    RightLeg RightFoot
    RightFoot RightToes
    SpineDummy Spine
    Spine Spine1
    Spine1 HEadDummy LeftShoulder1Dummy RightShoulderDummy
    HEadDummy HEad
    LeftShoulder1Dummy LeftShoulder1
    LeftShoulder1 LeftArm
    LeftArm LeftForeArm
    LeftForeArm LeftHand
    RightShoulderDummy RightShoulder
    RightShoulder RightArm
    RightArm RightForeArm
    RightForeArm RightHand
    LeftUpLegDummy LeftUpLeg
    LeftUpLeg LeftLeg
    LeftLeg LeftFoot
    LeftFoot LeftToes
  end

:SAMPLES-PER-SECOND 30
:FULLY-SPECIFIED
:DEGREES
529
root  2.33343 37.126 13.0124 176.838 -11.3542 179.394
RightUpLeg  30.3983 4.0836 5.87805
RightLeg  -76.913 -13.379 -0.181867
RightFoot  7.91212 4.31658 -12.4082
RightToes  -1.27222e-014 -6.36111e-015 6.36111e-015
Spine  -29.7412 -2.98036 -4.43058
Spine1  9.10702 -3.61514 25.7375
HEad  2.47465 3.83531 -6.69679
LeftShoulder1  6.36111e-015 -1.33558e-015 6.49777e-015
LeftArm  37.4617 22.6212 -22.104
LeftForeArm  -27.7843 -43.2496 14.5333
LeftHand  -1.18481 -1.4329 -9.12394
RightShoulder  -4.77083e-015 -6.36111e-015 -3.18055e-015
RightArm  22.1171 -7.6998 0.842487
RightForeArm  -30.0757 15.3361 -29.3544
RightHand  -0.861057 4.86218 0.215198
LeftUpLeg  8.73944 19.6889 11.8743
LeftLeg  7.13293 -9.05008 -1.60359
LeftFoot  14.5602 5.10043 -11.6544
LeftToes  9.54166e-015 4.2066e-011 -8.07781e-011
530
root  2.42306 36.6792 12.6427 176.723 -9.44324 -178.841
RightUpLeg  35.5279 5.90433 9.80239
RightLeg  -83.4732 -12.4761 -1.31613
RightFoot  1.57365 5.52663 -13.2848
RightToes  -1.27222e-014 -6.36111e-015 6.36111e-015
Spine  -29.5601 0.490139 -1.61402
Spine1  8.04053 -2.28695 23.7653
HEad  0.726637 3.00997 -7.06004
LeftShoulder1  6.36111e-015 -1.33558e-015 6.49777e-015
LeftArm  36.8594 20.4614 -22.8644
LeftForeArm  -36.3679 -46.3117 21.0722
LeftHand  -0.763835 -0.121157 -8.81732
RightShoulder  -4.77083e-015 -6.36111e-015 -3.18055e-015
RightArm  20.1848 -6.01746 -0.400786
RightForeArm  -24.4897 11.9561 -23.573
RightHand  -0.766888 4.61235 -0.362619
LeftUpLeg  7.3885 15.8236 14.3682
LeftLeg  9.0268 -4.33851 -0.357177
LeftFoot  9.50556 2.6497 -6.86671
LeftToes  9.54166e-015 4.2066e-011 -8.07781e-011
531
root  2.49776 36.2619 12.2294 177.376 -7.94273 -177.811
RightUpLeg  38.1441 6.6228 13.0308
RightLeg  -88.9289 -12.6752 2.37049
RightFoot  -1.6619 6.63092 -15.0893
RightToes  -1.27222e-014 -6.36111e-015 6.36111e-015
Spine  -29.3033 3.53761 0.903732
Spine1  7.64373 -1.00899 20.8175
HEad  -0.971007 1.79906 -7.32543
LeftShoulder1  6.36111e-015 -1.33558e-015 6.49777e-015
LeftArm  33.7522 16.0144 -25.2715
LeftForeArm  -43.9206 -47.2321 25.9422
LeftHand  -0.0241495 1.83705 -7.35953
RightShoulder  -4.77083e-015 -6.36111e-015 -3.18055e-015
RightArm  18.4342 -7.66556 -2.65132
RightForeArm  -19.9733 7.59197 -18.4845
RightHand  -0.109482 2.69683 -3.354
LeftUpLeg  6.2684 11.0371 15.7541
LeftLeg  10.4717 -5.05551 -0.531319
LeftFoot  6.41022 2.46748 -6.91552
LeftToes  9.54166e-015 4.2066e-011 -8.07781e-011
532
root  2.47104 35.9385 11.7058 178.388 -7.56366 -177.9
RightUpLeg  39.0414 7.15308 14.1665
RightLeg  -91.4149 -12.7783 5.60973
RightFoot  -2.43423 7.19064 -16.3206
RightToes  -1.27222e-014 -6.36111e-015 6.36111e-015
Spine  -28.7329 5.59993 2.89069
Spine1  7.92685 0.0240762 17.094
HEad  -2.58865 -0.51497 -7.33117
LeftShoulder1  6.36111e-015 -1.33558e-015 6.49777e-015
LeftArm  29.1388 8.77504 -29.3486
LeftForeArm  -49.5328 -47.6473 29.6428
LeftHand  0.467492 2.82745 -5.73063
RightShoulder  -4.77083e-015 -6.36111e-015 -3.18055e-015
RightArm  18.0109 -13.8503 -6.24843
RightForeArm  -18.224 2.45276 -14.7781
RightHand  0.910422 0.472759 -7.80564
LeftUpLeg  6.15244 7.13449 15.5449
LeftLeg  12.5359 -11.6922 -2.80364
LeftFoot  3.65278 3.83488 -11.5626
LeftToes  9.54166e-015 4.2066e-011 -8.07781e-011
533
root  2.36009 35.8008 11.1153 179.034 -8.31573 -179.288
RightUpLeg  38.757 7.97813 13.0149
RightLeg  -89.1193 -13.1491 5.16694
RightFoot  -2.76161 6.86934 -15.4294
RightToes  -1.27222e-014 -6.36111e-015 6.36111e-015
Spine  -27.4584 5.76038 3.39305
Spine1  8.95764 0.688563 14.0864
HEad  -4.4003 -2.90795 -8.01074
LeftShoulder1  6.36111e-015 -1.33558e-015 6.49777e-015
LeftArm  24.669 -0.426967 -34.4185
LeftForeArm  -55.3646 -48.594 34.9086
LeftHand  0.40716 2.53946 -5.39523
RightShoulder  -4.77083e-015 -6.36111e-015 -3.18055e-015
RightArm  20.7055 -21.7215 -10.1361
RightForeArm  -20.3258 -4.73709 -11.5856
RightHand  1.5107 -0.183255 -11.0631
LeftUpLeg  7.8952 6.65519 13.6997
LeftLeg  13.0788 -16.9188 -4.67091
LeftFoot  1.12426 4.17797 -13.5531
LeftToes  9.54166e-015 4.2066e-011 -8.07781e-011
534
root  2.2885 35.848 10.5005 179.436 -10.1685 177.854
RightUpLeg  36.1456 8.2236 9.6173
RightLeg  -81.5981 -14.2016 3.98965
RightFoot  -0.93128 5.30683 -12.0473
RightToes  -1.27222e-014 -6.36111e-015 6.36111e-015
Spine  -25.66 2.87137 0.660131
Spine1  10.7027 0.524692 13.8938
HEad  -6.68698 -3.59621 -10.0294
LeftShoulder1  6.36111e-015 -1.33558e-015 6.49777e-015
LeftArm  20.4966 -9.64223 -39.7785
LeftForeArm  -63.4558 -49.5807 43.3057
LeftHand  0.0933511 1.83687 -6.17115
RightShoulder  -4.77083e-015 -6.36111e-015 -3.18055e-015
RightArm  26.4962 -26.9531 -11.6683
RightForeArm  -24.2723 -13.7382 -7.74853
RightHand  1.42748 0.512791 -11.8856
LeftUpLeg  10.7451 9.45496 10.5828
LeftLeg  10.4878 -17.1069 -4.18449
LeftFoot  -1.01259 3.36148 -11.6537
LeftToes  9.54166e-015 4.2066e-011 -8.07781e-011
535
root  2.24439 35.8806 9.811 -179.908 -12.9025 174.291
RightUpLeg  30.2752 7.24826 4.97015
RightLeg  -69.6625 -16.7611 4.81416
RightFoot  7.5503 2.85182 -9.42504
RightToes  -1.27222e-014 -6.36111e-015 6.36111e-015
Spine  -23.8613 -2.23061 -4.68688
Spine1  12.6991 -0.874521 16.9163
HEad  -9.81489 -2.80576 -12.655
LeftShoulder1  6.36111e-015 -1.33558e-015 6.49777e-015
LeftArm  15.8584 -18.7871 -45.1543
LeftForeArm  -72.1938 -49.5223 52.5904
LeftHand  -0.177389 1.22917 -6.92693
RightShoulder  -4.77083e-015 -6.36111e-015 -3.18055e-015
RightArm  33.6799 -28.6991 -8.92604
RightForeArm  -26.9485 -20.7598 -4.55917
RightHand  1.27372 1.15286 -12.0971
LeftUpLeg  12.7166 12.4149 6.82763
LeftLeg  7.45377 -15.892 -3.27201
LeftFoot  -3.09915 2.77835 -10.3057
LeftToes  9.54166e-015 4.2066e-011 -8.07781e-011
536
root  2.12824 35.7532 9.07384 -179.365 -15.6264 171.336
RightUpLeg  22.6618 6.06631 0.662075
RightLeg  -55.8305 -19.6061 4.49827
RightFoot  21.9808 1.61463 -11.4066
RightToes  -1.27222e-014 -6.36111e-015 6.36111e-015
Spine  -22.4266 -7.14353 -9.69199
Spine1  14.7646 -2.95206 21.057
HEad  -13.3196 -2.59421 -14.459
LeftShoulder1  6.36111e-015 -1.33558e-015 6.49777e-015
LeftArm  10.7661 -29.8009 -49.5461
LeftForeArm  -77.7009 -48.9434 58.8474
LeftHand  -0.286507 0.915141 -7.01399
RightShoulder  -4.77083e-015 -6.36111e-015 -3.18055e-015
RightArm  40.911 -30.2604 -4.75474
RightForeArm  -27.8946 -22.5 -3.73682
RightHand  1.51063 0.828516 -13.2303
LeftUpLeg  13.2034 13.1425 2.91855
LeftLeg  7.21638 -15.8678 -3.19439
LeftFoot  -4.84537 2.93417 -11.566
LeftToes  9.54166e-015 4.2066e-011 -8.07781e-011
